<svg width="62" height="48" viewBox="0 0 62 48" fill="none" xmlns="http://www.w3.org/2000/svg">
<path d="M59.7668 13.2421L35.4309 1.35386C33.333 0.304899 29.7665 0.304899 27.6686 1.35386L2.77335 13.2421C1.02508 14.0812 0.745361 15.27 0.745361 15.8994C0.745361 16.5288 1.02508 17.6477 2.77335 18.5568L4.80133 19.5358V30.7247C3.54258 31.2142 2.63349 32.473 2.63349 33.8716C2.63349 35.2702 3.54258 36.5289 4.7314 37.0184L1.58453 47.0185H10.3958L7.2489 37.0184C8.50765 36.5289 9.34682 35.2702 9.34682 33.8716C9.34682 32.403 8.43772 31.2142 7.17897 30.7247V20.7246L10.8853 22.5428V37.0884C10.8853 37.2982 10.9552 37.508 11.0951 37.7178C11.4447 38.1373 17.9483 47.0185 31.2351 47.0185C44.5219 47.0185 51.0254 38.0674 51.3052 37.7178C51.445 37.508 51.5149 37.2982 51.5149 37.0884V22.6128L59.7668 18.5568C61.515 17.7176 61.7947 16.5288 61.7947 15.8994C61.7248 15.27 61.515 14.0812 59.7668 13.2421ZM49.2772 36.7387C48.1583 38.1373 42.1443 44.8507 31.2351 44.8507C20.3259 44.8507 14.3119 38.1373 13.193 36.7387V23.5218L27.6686 30.445C28.7176 30.9345 30.1162 31.2142 31.5148 31.2142C32.9834 31.2142 34.382 30.9345 35.4309 30.375L49.2772 23.5918V36.7387ZM58.7877 16.5987L50.3961 20.7246C50.0464 20.7246 49.7667 20.8645 49.6268 21.1442L34.4519 28.4869C32.9834 29.2562 30.1162 29.2562 28.5777 28.4869L9.90627 19.5358L31.3749 17.0183C32.0043 16.9484 32.4239 16.3889 32.354 15.8295C32.284 15.2001 31.7246 14.7805 31.1652 14.8505L6.26988 17.7875L3.75238 16.5987C3.123 16.319 2.98314 15.9693 2.98314 15.9693C2.98314 15.8994 3.123 15.6197 3.75238 15.34L28.6477 3.38184C29.4169 3.03219 30.4659 2.8224 31.5148 2.8224C32.6337 2.8224 33.7526 3.03219 34.4519 3.38184L58.7877 15.27C59.4171 15.5498 59.557 15.8295 59.557 15.9693C59.557 15.9693 59.3472 16.319 58.7877 16.5987Z" fill="white"/>
</svg>
