<svg width="55" height="50" viewBox="0 0 55 50" fill="none" xmlns="http://www.w3.org/2000/svg">
<path d="M0.296719 47.8407C0.103574 48.1392 0.112353 48.5255 0.323058 48.8152C0.489865 49.0523 0.762024 49.1927 1.04296 49.1927C1.10442 49.1927 1.16587 49.1927 1.23611 49.1752L9.30432 47.3842C11.6308 48.5694 14.2383 49.1927 16.8546 49.1927C25.9587 49.1927 33.3773 41.8532 33.5177 32.7754C37.4684 33.8464 41.7967 33.4426 45.4664 31.5814L53.5346 33.3636C53.5961 33.3811 53.6576 33.3811 53.7278 33.3811C54.0087 33.3811 54.2809 33.2407 54.4477 33.0036C54.6496 32.7139 54.6584 32.3276 54.474 32.0291L51.1818 26.823C53.3942 23.9346 54.6057 20.3614 54.6057 16.6916C54.6057 7.49086 47.1257 0.0108643 37.925 0.0108643C28.7242 0.0108643 21.4023 7.35039 21.2618 16.4195C19.8571 16.0332 18.3822 15.8137 16.8546 15.8137C7.63625 15.8225 0.15625 23.3025 0.15625 32.5032C0.15625 36.1642 1.3678 39.7374 3.58897 42.6346L0.296719 47.8407ZM37.9074 1.77551C46.1337 1.77551 52.8323 8.47415 52.8323 16.7004C52.8323 20.1682 51.6207 23.5483 49.4083 26.2084C49.1625 26.4981 49.1362 26.9195 49.3381 27.2356L51.8402 31.1863L45.5191 29.7904C45.3172 29.7465 45.0977 29.7728 44.9133 29.8694C41.4104 31.7306 37.1875 32.0906 33.43 30.9141C32.833 24.5842 28.6715 19.2727 22.9825 17.0077C22.9825 16.9023 22.9738 16.797 22.9738 16.6916C22.9738 8.46537 29.6724 1.76673 37.8986 1.76673L37.9074 1.77551ZM1.91212 32.5032C1.91212 24.277 8.61075 17.5783 16.837 17.5783C25.0632 17.5783 31.7619 24.277 31.7619 32.5032C31.7619 40.7294 25.0632 47.4281 16.837 47.4281C14.3963 47.4281 11.9732 46.8223 9.8223 45.6722C9.69061 45.602 9.55014 45.5669 9.40967 45.5669C9.34822 45.5669 9.27798 45.5669 9.21653 45.5844L2.90418 46.9803L5.4063 43.0296C5.60822 42.7048 5.58188 42.2922 5.34484 42.0024C3.13245 39.3335 1.9209 35.9535 1.9209 32.4856L1.91212 32.5032Z" fill="white"/>
<path d="M16.837 40.4046C17.5643 40.4046 18.1539 39.815 18.1539 39.0877C18.1539 38.3603 17.5643 37.7708 16.837 37.7708C16.1097 37.7708 15.5201 38.3603 15.5201 39.0877C15.5201 39.815 16.1097 40.4046 16.837 40.4046Z" fill="white"/>
<path d="M16.837 25.4797C18.2856 25.4797 19.4708 26.665 19.4708 28.1135C19.4708 29.5621 18.2856 30.7473 16.837 30.7473C16.3541 30.7473 15.9591 31.1424 15.9591 31.6253V36.015H17.7149V32.4154C19.7166 32.0116 21.2267 30.2381 21.2267 28.1135C21.2267 25.6904 19.2601 23.7239 16.837 23.7239C14.4139 23.7239 12.4473 25.6904 12.4473 28.1135H14.2032C14.2032 26.665 15.3884 25.4797 16.837 25.4797Z" fill="white"/>
<path d="M30.8839 10.5549H44.9309V12.3108H30.8839V10.5549Z" fill="white"/>
<path d="M30.8839 15.8225H44.9309V17.5784H30.8839V15.8225Z" fill="white"/>
<path d="M34.3957 21.0901H44.9309V22.846H34.3957V21.0901Z" fill="white"/>
</svg>
