<svg width="60" height="59" viewBox="0 0 60 59" fill="none" xmlns="http://www.w3.org/2000/svg">
<mask id="path-1-inside-1_10_304" fill="white">
<path d="M38.8314 18.0718C37.8248 18.0734 36.82 18.1547 35.8262 18.3149C33.0656 15.508 29.548 13.565 25.7022 12.7228L30.7982 7.05296C30.9211 6.91882 31.0036 6.75276 31.0362 6.57384C31.0689 6.39493 31.0505 6.21042 30.983 6.04152L29.038 1.17886C28.9659 0.997904 28.8411 0.842758 28.6799 0.733517C28.5186 0.624276 28.3283 0.565974 28.1335 0.566163H14.518C14.3233 0.565974 14.1329 0.624276 13.9717 0.733517C13.8104 0.842758 13.6857 0.997904 13.6136 1.17886L11.6685 6.04152C11.6011 6.21042 11.5826 6.39493 11.6153 6.57384C11.648 6.75276 11.7305 6.91882 11.8533 7.05296L16.9494 12.7228C12.0307 13.8 7.68365 16.6568 4.74331 20.7443C1.80297 24.8317 0.476797 29.8616 1.0196 34.8675C1.5624 39.8733 3.93589 44.502 7.68403 47.8643C11.4322 51.2265 16.2906 53.0851 21.3258 53.0829C22.3323 53.0813 23.3372 53 24.3309 52.8398C26.2172 54.773 28.4729 56.3072 30.9639 57.3514C33.4549 58.3956 36.1304 58.9284 38.8314 58.9181C44.2479 58.9181 49.4426 56.7664 53.2727 52.9363C57.1028 49.1062 59.2546 43.9115 59.2546 38.4949C59.2546 33.0784 57.1028 27.8837 53.2727 24.0536C49.4426 20.2235 44.2479 18.0718 38.8314 18.0718ZM26.8498 2.51123H27.4722L28.6392 5.42883H25.6827L26.8498 2.51123ZM27.9001 7.37389L23.4945 12.2657L24.963 7.37389H27.9001ZM24.7491 2.51123L23.582 5.42883H19.0695L17.9025 2.51123H24.7491ZM22.9402 7.37389L21.4717 12.2463H21.1799L19.7114 7.37389H22.9402ZM15.1794 2.51123H15.8018L16.9688 5.42883H14.0123L15.1794 2.51123ZM14.7515 7.37389H17.6885L19.157 12.2657L14.7515 7.37389ZM21.3258 51.1379C16.5762 51.1513 12.0038 49.3353 8.55772 46.0668C5.11161 42.7983 3.05639 38.3284 2.81864 33.5848C2.5809 28.8411 4.17888 24.1881 7.28093 20.5914C10.383 16.9948 14.7508 14.7307 19.478 14.2692C20.7071 14.1524 21.9445 14.1524 23.1736 14.2692C27.6084 14.7132 31.7312 16.7521 34.7759 20.0071C38.0135 23.4232 39.8137 27.9532 39.8039 32.6597C39.8164 35.9962 38.9183 39.2728 37.2062 42.1365C35.4942 45.0002 33.0331 47.3424 30.0883 48.9108C29.3085 48.2622 28.6039 47.5282 27.9876 46.7226C30.6418 45.4506 32.8841 43.457 34.4579 40.9699C36.0316 38.4829 36.8732 35.6029 36.8863 32.6597C36.8817 28.5343 35.2408 24.5791 32.3236 21.6619C29.4064 18.7448 25.4513 17.1039 21.3258 17.0992C17.2356 17.0935 13.3078 18.699 10.3929 21.5683C7.47798 24.4375 5.81057 28.3395 5.75174 32.4292C5.69292 36.519 7.24741 40.4673 10.0786 43.4192C12.9098 46.3711 16.7898 48.0889 20.8784 48.2008C21.4239 49.2103 22.0517 50.1731 22.7554 51.0795C22.2886 51.1087 21.812 51.1379 21.3258 51.1379ZM40.2318 24.9476C43.7111 25.2966 46.9228 26.971 49.2012 29.6237C51.4796 32.2763 52.65 35.7039 52.47 39.1961C52.2899 42.6882 50.7732 45.9772 48.2341 48.3815C45.695 50.7858 42.3282 52.121 38.8314 52.1104C36.3659 52.1184 33.9461 51.4453 31.8389 50.1653C36.0202 47.6582 39.1654 43.7365 40.705 39.1106C42.2446 34.4847 42.0767 29.4604 40.2318 24.9476ZM26.9178 45.0693C25.798 43.0593 25.2121 40.7958 25.2159 38.4949C25.2288 35.8763 25.9912 33.316 27.413 31.117C28.8348 28.9179 30.8566 27.1719 33.2393 26.0854C34.3591 28.0954 34.9451 30.3589 34.9412 32.6597C34.9284 35.2784 34.166 37.8386 32.7441 40.0377C31.3223 42.2368 29.3005 43.9828 26.9178 45.0693ZM19.9253 46.2071C16.446 45.858 13.2343 44.1837 10.9559 41.531C8.67755 38.8784 7.5071 35.4508 7.68715 31.9586C7.86719 28.4665 9.38394 25.1774 11.9231 22.7732C14.4622 20.3689 17.829 19.0337 21.3258 19.0443C23.7913 19.0363 26.2111 19.7094 28.3183 20.9894C24.137 23.4965 20.9917 27.4182 19.4521 32.0441C17.9125 36.67 18.0804 41.6943 19.9253 46.2071ZM38.8314 56.9731C34.718 56.9754 30.7215 55.6043 27.4759 53.0773C24.2302 50.5503 21.9212 47.012 20.9148 43.0236C19.9085 39.0352 20.2626 34.825 21.9209 31.0606C23.5792 27.2963 26.4467 24.1934 30.0688 22.2439C30.8486 22.8925 31.5533 23.6265 32.1695 24.4321C29.5154 25.704 27.273 27.6977 25.6993 30.1847C24.1255 32.6718 23.2839 35.5518 23.2708 38.4949C23.2755 42.6204 24.9164 46.5756 27.8335 49.4928C30.7507 52.4099 34.7059 54.0508 38.8314 54.0555C42.9215 54.0612 46.8493 52.4557 49.7642 49.5864C52.6792 46.7172 54.3466 42.8152 54.4054 38.7255C54.4642 34.6357 52.9097 30.6874 50.0785 27.7355C47.2473 24.7836 43.3673 23.0658 39.2787 22.9539C38.7332 21.9444 38.1054 20.9816 37.4017 20.0752C37.8686 20.046 38.3451 20.0168 38.8314 20.0168C43.7321 20.0168 48.432 21.9636 51.8974 25.4289C55.3627 28.8943 57.3095 33.5942 57.3095 38.4949C57.3095 43.3956 55.3627 48.0956 51.8974 51.561C48.432 55.0263 43.7321 56.9731 38.8314 56.9731Z"/>
</mask>
<path d="M38.8314 18.0718C37.8248 18.0734 36.82 18.1547 35.8262 18.3149C33.0656 15.508 29.548 13.565 25.7022 12.7228L30.7982 7.05296C30.9211 6.91882 31.0036 6.75276 31.0362 6.57384C31.0689 6.39493 31.0505 6.21042 30.983 6.04152L29.038 1.17886C28.9659 0.997904 28.8411 0.842758 28.6799 0.733517C28.5186 0.624276 28.3283 0.565974 28.1335 0.566163H14.518C14.3233 0.565974 14.1329 0.624276 13.9717 0.733517C13.8104 0.842758 13.6857 0.997904 13.6136 1.17886L11.6685 6.04152C11.6011 6.21042 11.5826 6.39493 11.6153 6.57384C11.648 6.75276 11.7305 6.91882 11.8533 7.05296L16.9494 12.7228C12.0307 13.8 7.68365 16.6568 4.74331 20.7443C1.80297 24.8317 0.476797 29.8616 1.0196 34.8675C1.5624 39.8733 3.93589 44.502 7.68403 47.8643C11.4322 51.2265 16.2906 53.0851 21.3258 53.0829C22.3323 53.0813 23.3372 53 24.3309 52.8398C26.2172 54.773 28.4729 56.3072 30.9639 57.3514C33.4549 58.3956 36.1304 58.9284 38.8314 58.9181C44.2479 58.9181 49.4426 56.7664 53.2727 52.9363C57.1028 49.1062 59.2546 43.9115 59.2546 38.4949C59.2546 33.0784 57.1028 27.8837 53.2727 24.0536C49.4426 20.2235 44.2479 18.0718 38.8314 18.0718ZM26.8498 2.51123H27.4722L28.6392 5.42883H25.6827L26.8498 2.51123ZM27.9001 7.37389L23.4945 12.2657L24.963 7.37389H27.9001ZM24.7491 2.51123L23.582 5.42883H19.0695L17.9025 2.51123H24.7491ZM22.9402 7.37389L21.4717 12.2463H21.1799L19.7114 7.37389H22.9402ZM15.1794 2.51123H15.8018L16.9688 5.42883H14.0123L15.1794 2.51123ZM14.7515 7.37389H17.6885L19.157 12.2657L14.7515 7.37389ZM21.3258 51.1379C16.5762 51.1513 12.0038 49.3353 8.55772 46.0668C5.11161 42.7983 3.05639 38.3284 2.81864 33.5848C2.5809 28.8411 4.17888 24.1881 7.28093 20.5914C10.383 16.9948 14.7508 14.7307 19.478 14.2692C20.7071 14.1524 21.9445 14.1524 23.1736 14.2692C27.6084 14.7132 31.7312 16.7521 34.7759 20.0071C38.0135 23.4232 39.8137 27.9532 39.8039 32.6597C39.8164 35.9962 38.9183 39.2728 37.2062 42.1365C35.4942 45.0002 33.0331 47.3424 30.0883 48.9108C29.3085 48.2622 28.6039 47.5282 27.9876 46.7226C30.6418 45.4506 32.8841 43.457 34.4579 40.9699C36.0316 38.4829 36.8732 35.6029 36.8863 32.6597C36.8817 28.5343 35.2408 24.5791 32.3236 21.6619C29.4064 18.7448 25.4513 17.1039 21.3258 17.0992C17.2356 17.0935 13.3078 18.699 10.3929 21.5683C7.47798 24.4375 5.81057 28.3395 5.75174 32.4292C5.69292 36.519 7.24741 40.4673 10.0786 43.4192C12.9098 46.3711 16.7898 48.0889 20.8784 48.2008C21.4239 49.2103 22.0517 50.1731 22.7554 51.0795C22.2886 51.1087 21.812 51.1379 21.3258 51.1379ZM40.2318 24.9476C43.7111 25.2966 46.9228 26.971 49.2012 29.6237C51.4796 32.2763 52.65 35.7039 52.47 39.1961C52.2899 42.6882 50.7732 45.9772 48.2341 48.3815C45.695 50.7858 42.3282 52.121 38.8314 52.1104C36.3659 52.1184 33.9461 51.4453 31.8389 50.1653C36.0202 47.6582 39.1654 43.7365 40.705 39.1106C42.2446 34.4847 42.0767 29.4604 40.2318 24.9476ZM26.9178 45.0693C25.798 43.0593 25.2121 40.7958 25.2159 38.4949C25.2288 35.8763 25.9912 33.316 27.413 31.117C28.8348 28.9179 30.8566 27.1719 33.2393 26.0854C34.3591 28.0954 34.9451 30.3589 34.9412 32.6597C34.9284 35.2784 34.166 37.8386 32.7441 40.0377C31.3223 42.2368 29.3005 43.9828 26.9178 45.0693ZM19.9253 46.2071C16.446 45.858 13.2343 44.1837 10.9559 41.531C8.67755 38.8784 7.5071 35.4508 7.68715 31.9586C7.86719 28.4665 9.38394 25.1774 11.9231 22.7732C14.4622 20.3689 17.829 19.0337 21.3258 19.0443C23.7913 19.0363 26.2111 19.7094 28.3183 20.9894C24.137 23.4965 20.9917 27.4182 19.4521 32.0441C17.9125 36.67 18.0804 41.6943 19.9253 46.2071ZM38.8314 56.9731C34.718 56.9754 30.7215 55.6043 27.4759 53.0773C24.2302 50.5503 21.9212 47.012 20.9148 43.0236C19.9085 39.0352 20.2626 34.825 21.9209 31.0606C23.5792 27.2963 26.4467 24.1934 30.0688 22.2439C30.8486 22.8925 31.5533 23.6265 32.1695 24.4321C29.5154 25.704 27.273 27.6977 25.6993 30.1847C24.1255 32.6718 23.2839 35.5518 23.2708 38.4949C23.2755 42.6204 24.9164 46.5756 27.8335 49.4928C30.7507 52.4099 34.7059 54.0508 38.8314 54.0555C42.9215 54.0612 46.8493 52.4557 49.7642 49.5864C52.6792 46.7172 54.3466 42.8152 54.4054 38.7255C54.4642 34.6357 52.9097 30.6874 50.0785 27.7355C47.2473 24.7836 43.3673 23.0658 39.2787 22.9539C38.7332 21.9444 38.1054 20.9816 37.4017 20.0752C37.8686 20.046 38.3451 20.0168 38.8314 20.0168C43.7321 20.0168 48.432 21.9636 51.8974 25.4289C55.3627 28.8943 57.3095 33.5942 57.3095 38.4949C57.3095 43.3956 55.3627 48.0956 51.8974 51.561C48.432 55.0263 43.7321 56.9731 38.8314 56.9731Z" fill="white" stroke="#008275" stroke-width="0.5" mask="url(#path-1-inside-1_10_304)"/>
</svg>
