<svg width="46" height="14" viewBox="0 0 46 14" fill="none" xmlns="http://www.w3.org/2000/svg">
<path d="M1.97127 0C2.14368 3.8726 4.42121 5.80792 8.80386 5.80792C11.4688 6.2032 18.7313 5.33436 30.5937 3.19944C33.2373 2.72589 35.5148 2.48911 37.4263 2.48911C39.3377 2.48911 42.1963 3.31881 46 4.97821C45.1826 7.17184 44.0652 9.60028 42.6476 12.2675C39.1887 11.0816 36.2705 10.4887 33.8972 10.4887C31.5238 10.4887 27.8415 11.0816 22.8564 12.2675C15.1426 13.966 9.37857 14.4161 5.56423 13.6157C1.7499 12.8173 -0.104052 10.7216 0.00450356 7.33426C0.11093 3.94696 0.766519 1.5009 1.97127 0Z" fill="#1E354C"/>
</svg>
